# xmcd
#
# Track frame offsets: 
#        150
#        39165
#        57022
#        71777
#        92575
#        108632
#        132927
#        152040
#        174042
#        195250
#
# Disc length: 2899 seconds
#
# Revision: 7
# Processed by: cddbd v1.5.2PL0 Copyright (c) Steve Scherf et al.
# Submitted via: ExactAudioCopy v1.0b3
#
DISCID=760b510a
DTITLE=黃品源 - 簡單情歌
DYEAR=2002
DGENRE=Pop
TTITLE0=三月小雨
TTITLE1=簡單情歌
TTITLE2=小薇
TTITLE3=雪花
TTITLE4=雨衣
TTITLE5=我親愛的
TTITLE6=笑著讓你走
TTITLE7=禁忌的愛
TTITLE8=多好
TTITLE9=小薇（混音版）
EXTD=YEAR: 2002
EXTT0=
EXTT1=
EXTT2=
EXTT3=
EXTT4=
EXTT5=
EXTT6=
EXTT7=
EXTT8=
EXTT9=
PLAYORDER=
